<svg width="40" height="40" viewBox="0 0 40 40" fill="none" xmlns="http://www.w3.org/2000/svg">
<path d="M10.143 39.8585C7.76414 39.7503 6.4719 39.3545 5.61239 39.0192C4.4735 38.5758 3.66154 38.048 2.80679 37.1944C1.95203 36.3408 1.42301 35.5289 0.98196 34.39C0.646714 33.5305 0.25084 32.2382 0.142658 29.8594C0.0237763 27.288 0 26.5165 0 20.0018C0 13.4871 0.0261539 12.7167 0.141469 10.143C0.249651 7.76414 0.647903 6.47428 0.980771 5.61239C1.4242 4.4735 1.95322 3.66154 2.8056 2.8056C3.65917 1.95203 4.47113 1.42182 5.6112 0.980771C6.47071 0.645526 7.76295 0.249651 10.1418 0.141469C12.7144 0.0237763 13.4871 0 19.9994 0C26.5141 0 27.2845 0.0261539 29.8582 0.141469C32.237 0.249651 33.5269 0.647903 34.3888 0.980771C35.5277 1.42182 36.3396 1.95203 37.1944 2.8056C38.0492 3.65917 38.5758 4.47232 39.0192 5.6112C39.3545 6.47071 39.7503 7.76295 39.8585 10.1418C39.9762 12.7155 40 13.4859 40 20.0006C40 26.5129 39.9762 27.2856 39.8585 29.8594C39.7503 32.2382 39.3521 33.5305 39.0192 34.39C38.5758 35.5289 38.048 36.3408 37.1944 37.1944C36.3408 38.048 35.5277 38.5758 34.3888 39.0192C33.5293 39.3545 32.237 39.7503 29.8582 39.8585C27.2868 39.9762 26.5141 40 19.9994 40C13.4871 40 12.7144 39.9774 10.143 39.8585" fill="url(#paint0_radial_2_2062)"/>
<path d="M15.4619 19.8584C15.4619 17.43 17.43 15.4608 19.8584 15.4608C22.2868 15.4608 24.256 17.43 24.256 19.8584C24.256 22.2868 22.2868 24.256 19.8584 24.256C17.43 24.256 15.4619 22.2868 15.4619 19.8584M13.0847 19.8584C13.0847 23.5996 16.1173 26.6322 19.8584 26.6322C23.5996 26.6322 26.6322 23.5996 26.6322 19.8584C26.6322 16.1173 23.5996 13.0847 19.8584 13.0847C16.1173 13.0847 13.0848 16.117 13.0848 19.8584M25.3174 12.8161C25.3173 13.1292 25.41 13.4353 25.5839 13.6956C25.7577 13.956 26.0049 14.159 26.2941 14.279C26.5833 14.3989 26.9016 14.4304 27.2086 14.3694C27.5157 14.3085 27.7979 14.1578 28.0193 13.9365C28.2408 13.7152 28.3917 13.4332 28.4529 13.1262C28.5141 12.8191 28.4829 12.5008 28.3632 12.2115C28.2435 11.9222 28.0407 11.6749 27.7804 11.5008C27.5202 11.3268 27.2142 11.2338 26.9011 11.2337H26.9004C26.4808 11.2339 26.0783 11.4007 25.7815 11.6973C25.4847 11.994 25.3178 12.3964 25.3174 12.8161M14.529 30.5962C13.2428 30.5376 12.5438 30.3234 12.0792 30.1424C11.4633 29.9027 11.0239 29.6171 10.5619 29.1557C10.0999 28.6943 9.81386 28.2553 9.57514 27.6394C9.39405 27.175 9.17981 26.4758 9.12135 25.1896C9.05739 23.7991 9.04462 23.3814 9.04462 19.8586C9.04462 16.3358 9.05845 15.9193 9.12135 14.5276C9.17992 13.2415 9.39573 12.5436 9.57514 12.0779C9.81491 11.462 10.1005 11.0225 10.5619 10.5605C11.0233 10.0985 11.4623 9.81249 12.0792 9.57377C12.5436 9.39267 13.2428 9.17844 14.529 9.11998C15.9195 9.05602 16.3372 9.04325 19.8584 9.04325C23.3796 9.04325 23.7978 9.05687 25.1894 9.12019C26.4756 9.17876 27.1735 9.39457 27.6392 9.57398C28.2551 9.8127 28.6945 10.0993 29.1565 10.5607C29.6186 11.0221 29.9035 11.4622 30.1433 12.0781C30.3244 12.5424 30.5386 13.2417 30.5971 14.5278C30.661 15.9195 30.6738 16.336 30.6738 19.8588C30.6738 23.3816 30.661 23.7982 30.5971 25.1899C30.5385 26.476 30.3232 27.175 30.1433 27.6396C29.9035 28.2555 29.6179 28.6949 29.1565 29.1559C28.6951 29.6169 28.2551 29.9029 27.6392 30.1426C27.1748 30.3237 26.4756 30.538 25.1894 30.5964C23.7989 30.6604 23.3812 30.6732 19.8584 30.6732C16.3356 30.6732 15.9191 30.6604 14.529 30.5964M14.4198 6.74664C13.0154 6.81059 12.0558 7.03327 11.2178 7.35936C10.3504 7.69612 9.61514 8.14791 8.88094 8.88094C8.14675 9.61398 7.69612 10.3493 7.35936 11.2178C7.03327 12.0563 6.81059 13.0154 6.74664 14.4198C6.68163 15.8263 6.66675 16.276 6.66675 19.8584C6.66675 23.4408 6.68163 23.8905 6.74664 25.2971C6.81059 26.7015 7.03327 27.6605 7.35936 28.4991C7.69612 29.3664 8.14685 30.1032 8.88094 30.8359C9.61503 31.5686 10.3493 32.0198 11.2178 32.3575C12.0574 32.6836 13.0154 32.9062 14.4198 32.9702C15.827 33.0341 16.276 33.0501 19.8584 33.0501C23.4408 33.0501 23.8905 33.0352 25.2971 32.9702C26.7015 32.9062 27.6605 32.6836 28.4991 32.3575C29.3664 32.0198 30.1017 31.5689 30.8359 30.8359C31.5701 30.1029 32.0198 29.3664 32.3575 28.4991C32.6836 27.6605 32.9073 26.7014 32.9702 25.2971C33.0341 23.8895 33.049 23.4408 33.049 19.8584C33.049 16.276 33.0341 15.8263 32.9702 14.4198C32.9062 13.0153 32.6836 12.0558 32.3575 11.2178C32.0198 10.3504 31.5689 9.61514 30.8359 8.88094C30.1029 8.14675 29.3664 7.69612 28.5001 7.35936C27.6605 7.03327 26.7014 6.80953 25.2981 6.74664C23.8914 6.68237 23.4419 6.66675 19.86 6.66675C16.2781 6.66675 15.8276 6.68163 14.4203 6.74664" fill="white"/>
<defs>
<radialGradient id="paint0_radial_2_2062" cx="0" cy="0" r="1" gradientUnits="userSpaceOnUse" gradientTransform="translate(2.58876 39.1237) scale(50.7852)">
<stop offset="0.09" stop-color="#FA8F21"/>
<stop offset="0.78" stop-color="#D82D7E"/>
</radialGradient>
</defs>
</svg>
