<svg width="24" height="24" viewBox="0 0 24 24" fill="none" xmlns="http://www.w3.org/2000/svg">
<rect width="24" height="24" rx="12" fill="#1D9BF0"/>
<path d="M9.80408 18.3301C15.1261 18.3301 18.0361 13.9201 18.0361 10.0981C18.0361 9.97212 18.0361 9.84612 18.0301 9.72612C18.5941 9.31812 19.0861 8.80812 19.4761 8.22612C18.9601 8.45412 18.4021 8.61012 17.8141 8.68212C18.4141 8.32212 18.8701 7.75812 19.0861 7.08012C18.5281 7.41012 17.9101 7.65012 17.2501 7.78212C16.7221 7.21812 15.9721 6.87012 15.1381 6.87012C13.5421 6.87012 12.2461 8.16612 12.2461 9.76212C12.2461 9.99012 12.2701 10.2121 12.3241 10.4221C9.91808 10.3021 7.78808 9.15012 6.36008 7.39812C6.11408 7.82412 5.97008 8.32212 5.97008 8.85012C5.97008 9.85212 6.48008 10.7401 7.26008 11.2561C6.78608 11.2441 6.34208 11.1121 5.95208 10.8961C5.95208 10.9081 5.95208 10.9201 5.95208 10.9321C5.95208 12.3361 6.94808 13.5001 8.27408 13.7701C8.03408 13.8361 7.77608 13.8721 7.51208 13.8721C7.32608 13.8721 7.14608 13.8541 6.96608 13.8181C7.33208 14.9701 8.40008 15.8041 9.66608 15.8281C8.67608 16.6021 7.42808 17.0641 6.07208 17.0641C5.83808 17.0641 5.61008 17.0521 5.38208 17.0221C6.64808 17.8501 8.17208 18.3301 9.80408 18.3301Z" fill="white"/>
</svg>
