<svg width="24" height="24" viewBox="0 0 24 24" fill="none" xmlns="http://www.w3.org/2000/svg">
<rect width="24" height="24" rx="12" fill="#1D9BF0"/>
<path d="M9.80402 18.3301C15.126 18.3301 18.036 13.9201 18.036 10.0981C18.036 9.97212 18.036 9.84612 18.03 9.72612C18.594 9.31812 19.086 8.80812 19.476 8.22612C18.96 8.45412 18.402 8.61012 17.814 8.68212C18.414 8.32212 18.87 7.75812 19.086 7.08012C18.528 7.41012 17.91 7.65012 17.25 7.78212C16.722 7.21812 15.972 6.87012 15.138 6.87012C13.542 6.87012 12.246 8.16612 12.246 9.76212C12.246 9.99012 12.27 10.2121 12.324 10.4221C9.91802 10.3021 7.78802 9.15012 6.36002 7.39812C6.11402 7.82412 5.97002 8.32212 5.97002 8.85012C5.97002 9.85212 6.48002 10.7401 7.26002 11.2561C6.78602 11.2441 6.34202 11.1121 5.95202 10.8961C5.95202 10.9081 5.95202 10.9201 5.95202 10.9321C5.95202 12.3361 6.94802 13.5001 8.27402 13.7701C8.03402 13.8361 7.77602 13.8721 7.51202 13.8721C7.32602 13.8721 7.14602 13.8541 6.96602 13.8181C7.33202 14.9701 8.40002 15.8041 9.66602 15.8281C8.67602 16.6021 7.42802 17.0641 6.07202 17.0641C5.83802 17.0641 5.61002 17.0521 5.38202 17.0221C6.64802 17.8501 8.17202 18.3301 9.80402 18.3301Z" fill="white"/>
</svg>
