<svg width="85" height="13" viewBox="0 0 85 13" fill="none" xmlns="http://www.w3.org/2000/svg">
<path d="M25.0459 0.308838L27.4046 3.8363L31.6259 4.90106L28.8623 8.14592L29.1126 12.3314L25.0459 10.8094L20.9792 12.3314L21.2294 8.14592L18.4658 4.90106L22.6872 3.8363L25.0459 0.308838Z" fill="#FFCB45"/>
<path d="M42.812 0.308838L45.1707 3.8363L49.392 4.90106L46.6284 8.14592L46.8787 12.3314L42.812 10.8094L38.7453 12.3314L38.9956 8.14592L36.2319 4.90106L40.4533 3.8363L42.812 0.308838Z" fill="#FFCB45"/>
<path d="M60.5781 0.308838L62.9368 3.8363L67.1581 4.90106L64.3945 8.14592L64.6448 12.3314L60.5781 10.8094L56.5114 12.3314L56.7617 8.14592L53.998 4.90106L58.2194 3.8363L60.5781 0.308838Z" fill="#FFCB45"/>
<path d="M7.27976 0.308838L9.63844 3.8363L13.8598 4.90106L11.0962 8.14592L11.3465 12.3314L7.27976 10.8094L3.21306 12.3314L3.46333 8.14592L0.699707 4.90106L4.92107 3.8363L7.27976 0.308838Z" fill="#FFCB45"/>
<path d="M78.3442 0.308838L80.7029 3.8363L84.9243 4.90106L82.1606 8.14592L82.4109 12.3314L78.3442 10.8094L74.2775 12.3314L74.5278 8.14592L71.7642 4.90106L75.9855 3.8363L78.3442 0.308838Z" fill="#FFCB45"/>
</svg>
