<svg width="85" height="13" viewBox="0 0 85 13" fill="none" xmlns="http://www.w3.org/2000/svg">
<path d="M24.851 0.308838L27.2097 3.8363L31.4311 4.90106L28.6675 8.14592L28.9177 12.3314L24.851 10.8094L20.7844 12.3314L21.0346 8.14592L18.271 4.90106L22.4924 3.8363L24.851 0.308838Z" fill="#FFCB45"/>
<path d="M42.6172 0.308838L44.9758 3.8363L49.1972 4.90106L46.4336 8.14592L46.6839 12.3314L42.6172 10.8094L38.5505 12.3314L38.8007 8.14592L36.0371 4.90106L40.2585 3.8363L42.6172 0.308838Z" fill="#FFCB45"/>
<path d="M60.3833 0.308838L62.742 3.8363L66.9633 4.90106L64.1997 8.14592L64.45 12.3314L60.3833 10.8094L56.3166 12.3314L56.5668 8.14592L53.8032 4.90106L58.0246 3.8363L60.3833 0.308838Z" fill="#FFCB45"/>
<path d="M7.08493 0.308838L9.44361 3.8363L13.665 4.90106L10.9014 8.14592L11.1516 12.3314L7.08493 10.8094L3.01824 12.3314L3.2685 8.14592L0.504883 4.90106L4.72625 3.8363L7.08493 0.308838Z" fill="#FFCB45"/>
<path d="M78.1494 0.308838L80.5081 3.8363L84.7294 4.90106L81.9658 8.14592L82.2161 12.3314L78.1494 10.8094L74.0827 12.3314L74.333 8.14592L71.5693 4.90106L75.7907 3.8363L78.1494 0.308838Z" fill="#FFCB45"/>
</svg>
