<svg width="86" height="12" viewBox="0 0 86 12" fill="none" xmlns="http://www.w3.org/2000/svg">
<path d="M24.6667 0L27.0564 3.52083L31.3333 4.58359L28.5333 7.82235L28.7869 12L24.6667 10.4808L20.5464 12L20.8 7.82235L18 4.58359L22.2769 3.52083L24.6667 0Z" fill="#FFCB45"/>
<path d="M42.6667 0L45.0564 3.52083L49.3333 4.58359L46.5333 7.82235L46.7869 12L42.6667 10.4808L38.5464 12L38.8 7.82235L36 4.58359L40.2769 3.52083L42.6667 0Z" fill="#FFCB45"/>
<path d="M60.6667 0L63.0564 3.52083L67.3333 4.58359L64.5333 7.82235L64.7869 12L60.6667 10.4808L56.5464 12L56.8 7.82235L54 4.58359L58.2769 3.52083L60.6667 0Z" fill="#FFCB45"/>
<path d="M6.66667 0L9.0564 3.52083L13.3333 4.58359L10.5333 7.82235L10.7869 12L6.66667 10.4808L2.54644 12L2.8 7.82235L0 4.58359L4.27693 3.52083L6.66667 0Z" fill="#FFCB45"/>
<path d="M78.6667 0L81.0564 3.52083L85.3333 4.58359L82.5333 7.82235L82.7869 12L78.6667 10.4808L74.5464 12L74.8 7.82235L72 4.58359L76.2769 3.52083L78.6667 0Z" fill="#FFCB45"/>
</svg>
