<svg width="136" height="21" viewBox="0 0 136 21" fill="none" xmlns="http://www.w3.org/2000/svg">
<path d="M39.274 0L43.0789 5.959L49.8886 7.75773L45.4304 13.2393L45.8342 20.31L39.274 17.7388L32.7138 20.31L33.1175 13.2393L28.6594 7.75773L35.4691 5.959L39.274 0Z" fill="#FFCB45"/>
<path d="M67.9332 0L71.7381 5.959L78.5477 7.75773L74.0896 13.2393L74.4933 20.31L67.9332 17.7388L61.373 20.31L61.7767 13.2393L57.3186 7.75773L64.1283 5.959L67.9332 0Z" fill="#FFCB45"/>
<path d="M96.5926 0L100.397 5.959L107.207 7.75773L102.749 13.2393L103.153 20.31L96.5926 17.7388L90.0324 20.31L90.4361 13.2393L85.978 7.75773L92.7877 5.959L96.5926 0Z" fill="#FFCB45"/>
<path d="M10.6146 0L14.4195 5.959L21.2291 7.75773L16.771 13.2393L17.1747 20.31L10.6146 17.7388L4.0544 20.31L4.45812 13.2393L0 7.75773L6.80967 5.959L10.6146 0Z" fill="#FFCB45"/>
<path d="M125.252 0L129.057 5.959L135.866 7.75773L131.408 13.2393L131.812 20.31L125.252 17.7388L118.692 20.31L119.095 13.2393L114.637 7.75773L121.447 5.959L125.252 0Z" fill="#FFCB45"/>
</svg>
