<svg width="124" height="27" viewBox="0 0 124 27" fill="none" xmlns="http://www.w3.org/2000/svg">
<path d="M35.8437 0L39.3163 7.71901L45.5312 10.049L41.4625 17.1496L41.831 26.3086L35.8437 22.978L29.8565 26.3086L30.225 17.1496L26.1562 10.049L32.3712 7.71901L35.8437 0Z" fill="#FFCB45"/>
<path d="M62 0L65.4726 7.71901L71.6875 10.049L67.6187 17.1496L67.9872 26.3086L62 22.978L56.0128 26.3086L56.3812 17.1496L52.3125 10.049L58.5274 7.71901L62 0Z" fill="#FFCB45"/>
<path d="M88.1562 0L91.6288 7.71901L97.8438 10.049L93.775 17.1496L94.1435 26.3086L88.1562 22.978L82.169 26.3086L82.5375 17.1496L78.4688 10.049L84.6837 7.71901L88.1562 0Z" fill="#FFCB45"/>
<path d="M9.6875 0L13.1601 7.71901L19.375 10.049L15.3062 17.1496L15.6747 26.3086L9.6875 22.978L3.7003 26.3086L4.06875 17.1496L0 10.049L6.21492 7.71901L9.6875 0Z" fill="#FFCB45"/>
<path d="M114.312 0L117.785 7.71901L124 10.049L119.931 17.1496L120.3 26.3086L114.312 22.978L108.325 26.3086L108.694 17.1496L104.625 10.049L110.84 7.71901L114.312 0Z" fill="#FFCB45"/>
</svg>
