<svg width="40" height="40" viewBox="0 0 40 40" fill="none" xmlns="http://www.w3.org/2000/svg">
<path d="M31.6665 7.08325H8.33317C7.56097 7.08763 6.82165 7.39632 6.27561 7.94236C5.72957 8.48839 5.42088 9.22772 5.4165 9.99992V29.9999C5.42088 30.7721 5.72957 31.5114 6.27561 32.0575C6.82165 32.6035 7.56097 32.9122 8.33317 32.9166H31.6665C32.4387 32.9122 33.178 32.6035 33.7241 32.0575C34.2701 31.5114 34.5788 30.7721 34.5832 29.9999V9.99992C34.5788 9.22772 34.2701 8.48839 33.7241 7.94236C33.178 7.39632 32.4387 7.08763 31.6665 7.08325ZM8.33317 9.58325H31.6665C31.777 9.58325 31.883 9.62715 31.9611 9.70529C32.0393 9.78343 32.0832 9.88941 32.0832 9.99992V12.5666L19.9998 18.5999L7.9165 12.5666V9.99992C7.9165 9.88941 7.9604 9.78343 8.03854 9.70529C8.11668 9.62715 8.22266 9.58325 8.33317 9.58325ZM31.6665 30.4166H8.33317C8.22266 30.4166 8.11668 30.3727 8.03854 30.2945C7.9604 30.2164 7.9165 30.1104 7.9165 29.9999V15.3499L19.4332 21.1166C19.6091 21.2046 19.8031 21.2504 19.9998 21.2504C20.1966 21.2504 20.3906 21.2046 20.5665 21.1166L32.0832 15.3499V29.9999C32.0832 30.1104 32.0393 30.2164 31.9611 30.2945C31.883 30.3727 31.777 30.4166 31.6665 30.4166Z" fill="white"/>
</svg>
