<svg width="24" height="30" viewBox="0 0 24 30" fill="none" xmlns="http://www.w3.org/2000/svg">
<path d="M10.4506 22.6761C9.00546 22.6761 7.59279 22.1288 6.39122 21.1036C5.18964 20.0783 4.25313 18.6211 3.70011 16.9161C3.14709 15.2112 3.00239 13.3351 3.28432 11.5251C3.56625 9.71514 4.26214 8.05257 5.28399 6.74766C6.30585 5.44274 7.60777 4.55409 9.02512 4.19406C10.4425 3.83404 11.9116 4.01881 13.2467 4.72503C14.5818 5.43124 15.723 6.62718 16.5258 8.16159C17.3287 9.69601 17.7572 11.5 17.7572 13.3454C17.7572 14.5707 17.5682 15.7841 17.201 16.9161C16.8338 18.0482 16.2956 19.0768 15.6172 19.9432C14.9387 20.8096 14.1332 21.4969 13.2467 21.9658C12.3602 22.4347 11.4101 22.6761 10.4506 22.6761ZM10.4506 5.88586C9.29909 5.88586 8.17346 6.3219 7.21603 7.13885C6.2586 7.95579 5.51237 9.11695 5.07172 10.4755C4.63106 11.834 4.51577 13.3289 4.74041 14.7711C4.96506 16.2133 5.51955 17.5381 6.33378 18.5778C7.148 19.6176 8.18539 20.3257 9.31475 20.6126C10.4441 20.8994 11.6147 20.7522 12.6786 20.1895C13.7424 19.6268 14.6517 18.6738 15.2914 17.4512C15.9312 16.2285 16.2726 14.7911 16.2726 13.3206C16.2726 11.3488 15.6592 9.45775 14.5674 8.06346C13.4755 6.66917 11.9947 5.88586 10.4506 5.88586Z" fill="black"/>
<path d="M19.4068 25.712C19.3112 25.7125 19.2164 25.6887 19.1281 25.6419C19.0398 25.5951 18.9597 25.5262 18.8925 25.4394L14.885 20.3218C14.7565 20.1456 14.6865 19.9126 14.6898 19.6718C14.6931 19.431 14.7695 19.2013 14.9029 19.031C15.0362 18.8608 15.2161 18.7632 15.4046 18.759C15.5932 18.7547 15.7756 18.8441 15.9136 19.0083L19.9211 24.1259C20.0574 24.3001 20.1339 24.5363 20.1339 24.7826C20.1339 25.0289 20.0574 25.2651 19.9211 25.4394C19.8539 25.5262 19.7738 25.5951 19.6855 25.6419C19.5972 25.6887 19.5024 25.7125 19.4068 25.712Z" fill="black"/>
</svg>
