<svg width="24" height="30" viewBox="0 0 24 30" fill="none" xmlns="http://www.w3.org/2000/svg">
<path d="M10.4505 22.6761C9.00534 22.6761 7.59267 22.1288 6.3911 21.1036C5.18952 20.0783 4.25301 18.6211 3.69999 16.9161C3.14696 15.2112 3.00227 13.3351 3.2842 11.5251C3.56613 9.71514 4.26202 8.05257 5.28387 6.74766C6.30572 5.44274 7.60765 4.55409 9.025 4.19406C10.4423 3.83404 11.9115 4.01881 13.2466 4.72503C14.5817 5.43124 15.7228 6.62718 16.5257 8.16159C17.3286 9.69601 17.7571 11.5 17.7571 13.3454C17.7571 14.5707 17.5681 15.7841 17.2009 16.9161C16.8337 18.0482 16.2955 19.0768 15.617 19.9432C14.9386 20.8096 14.1331 21.4969 13.2466 21.9658C12.3601 22.4347 11.41 22.6761 10.4505 22.6761ZM10.4505 5.88586C9.29896 5.88586 8.17333 6.3219 7.21591 7.13885C6.25848 7.95579 5.51225 9.11695 5.0716 10.4755C4.63094 11.834 4.51564 13.3289 4.74029 14.7711C4.96493 16.2133 5.51943 17.5381 6.33365 18.5778C7.14788 19.6176 8.18527 20.3257 9.31463 20.6126C10.444 20.8994 11.6146 20.7522 12.6784 20.1895C13.7423 19.6268 14.6516 18.6738 15.2913 17.4512C15.931 16.2285 16.2725 14.7911 16.2725 13.3206C16.2725 11.3488 15.6591 9.45775 14.5673 8.06346C13.4754 6.66917 11.9946 5.88586 10.4505 5.88586Z" fill="black"/>
<path d="M19.4068 25.712C19.3112 25.7125 19.2164 25.6887 19.1281 25.6419C19.0398 25.5951 18.9597 25.5262 18.8925 25.4394L14.885 20.3218C14.7565 20.1456 14.6865 19.9126 14.6898 19.6718C14.6931 19.431 14.7695 19.2013 14.9029 19.031C15.0362 18.8608 15.2161 18.7632 15.4046 18.759C15.5932 18.7547 15.7756 18.8441 15.9136 19.0083L19.9211 24.1259C20.0574 24.3001 20.1339 24.5363 20.1339 24.7826C20.1339 25.0289 20.0574 25.2651 19.9211 25.4394C19.8539 25.5262 19.7738 25.5951 19.6855 25.6419C19.5972 25.6887 19.5024 25.7125 19.4068 25.712Z" fill="black"/>
</svg>
