<svg width="24" height="24" viewBox="0 0 24 24" fill="none" xmlns="http://www.w3.org/2000/svg">
<path d="M18.4001 20.75H18.1701C15.5789 20.4681 13.0894 19.5846 10.9001 18.17C8.86627 16.8747 7.13947 15.1513 5.8401 13.12C4.42225 10.925 3.53862 8.42823 3.2601 5.83001C3.22825 5.52011 3.25969 5.20696 3.35252 4.90958C3.44534 4.6122 3.59761 4.33677 3.8001 4.10001C3.99703 3.86008 4.24012 3.66211 4.51495 3.51782C4.78978 3.37354 5.09077 3.28587 5.4001 3.26001H8.0001C8.56321 3.26058 9.10756 3.46248 9.53485 3.82925C9.96214 4.19602 10.2442 4.70349 10.3301 5.26001C10.425 5.97489 10.6029 6.67628 10.8601 7.35001C11.0165 7.77339 11.0488 8.23264 10.9532 8.67375C10.8575 9.11485 10.6379 9.51947 10.3201 9.84001L9.7101 10.45C10.6705 11.9662 11.9588 13.2477 13.4801 14.2L14.0901 13.6C14.4106 13.2822 14.8153 13.0626 15.2564 12.9669C15.6975 12.8713 16.1567 12.9036 16.5801 13.06C17.2546 13.3148 17.9557 13.4926 18.6701 13.59C19.2361 13.6751 19.7516 13.9638 20.1199 14.402C20.4881 14.8403 20.6838 15.3978 20.6701 15.97V18.37C20.6701 18.9942 20.4228 19.593 19.9824 20.0353C19.542 20.4776 18.9443 20.7274 18.3201 20.73L18.4001 20.75ZM8.0001 4.75001H5.6101C5.49275 4.75777 5.37819 4.78924 5.27334 4.84252C5.1685 4.8958 5.07554 4.96979 5.0001 5.06001C4.92667 5.14452 4.8711 5.24302 4.83673 5.34957C4.80235 5.45612 4.7899 5.56852 4.8001 5.68001C5.04258 8.03679 5.83371 10.304 7.1101 12.3C8.28674 14.1467 9.85341 15.7134 11.7001 16.89C13.6973 18.1798 15.9671 18.9878 18.3301 19.25C18.453 19.2569 18.576 19.2383 18.6913 19.1953C18.8066 19.1522 18.9118 19.0857 19.0001 19C19.1593 18.8368 19.2489 18.6181 19.2501 18.39V16C19.2546 15.7896 19.1818 15.5848 19.0454 15.4244C18.909 15.2641 18.7185 15.1593 18.5101 15.13C17.6839 15.0189 16.8724 14.8177 16.0901 14.53C15.936 14.4724 15.7687 14.4596 15.6076 14.4933C15.4465 14.5269 15.2983 14.6055 15.1801 14.72L14.1801 15.72C14.063 15.8342 13.9121 15.9076 13.75 15.9292C13.5878 15.9508 13.423 15.9195 13.2801 15.84C11.1463 14.6342 9.38006 12.8715 8.1701 10.74C8.08728 10.598 8.05411 10.4324 8.07584 10.2694C8.09757 10.1065 8.17296 9.95538 8.2901 9.84001L9.2901 8.84001C9.40478 8.72403 9.48367 8.57751 9.51736 8.41793C9.55105 8.25835 9.53811 8.09244 9.4801 7.94001C9.19129 7.15799 8.99006 6.34637 8.8801 5.52001C8.85529 5.30528 8.75142 5.10747 8.58875 4.96513C8.42607 4.82278 8.21622 4.7461 8.0001 4.75001Z" fill="white"/>
</svg>
