<svg width="24" height="30" viewBox="0 0 24 30" fill="none" xmlns="http://www.w3.org/2000/svg">
<path d="M10.4505 22.6761C9.00543 22.6761 7.59276 22.1288 6.39119 21.1036C5.18961 20.0783 4.2531 18.6211 3.70008 16.9161C3.14706 15.2112 3.00236 13.3351 3.28429 11.5251C3.56622 9.71514 4.26211 8.05257 5.28396 6.74766C6.30582 5.44274 7.60774 4.55409 9.02509 4.19406C10.4424 3.83404 11.9116 4.01881 13.2467 4.72503C14.5818 5.43124 15.7229 6.62718 16.5258 8.16159C17.3287 9.69601 17.7572 11.5 17.7572 13.3454C17.7572 14.5707 17.5682 15.7841 17.201 16.9161C16.8338 18.0482 16.2956 19.0768 15.6171 19.9432C14.9386 20.8096 14.1332 21.4969 13.2467 21.9658C12.3602 22.4347 11.4101 22.6761 10.4505 22.6761ZM10.4505 5.88586C9.29906 5.88586 8.17343 6.3219 7.216 7.13885C6.25857 7.95579 5.51234 9.11695 5.07169 10.4755C4.63103 11.834 4.51574 13.3289 4.74038 14.7711C4.96503 16.2133 5.51952 17.5381 6.33375 18.5778C7.14797 19.6176 8.18536 20.3257 9.31472 20.6126C10.4441 20.8994 11.6147 20.7522 12.6785 20.1895C13.7424 19.6268 14.6517 18.6738 15.2914 17.4512C15.9311 16.2285 16.2726 14.7911 16.2726 13.3206C16.2726 11.3488 15.6592 9.45775 14.5673 8.06346C13.4755 6.66917 11.9946 5.88586 10.4505 5.88586Z" fill="black"/>
<path d="M19.4068 25.712C19.3111 25.7125 19.2164 25.6887 19.1281 25.6419C19.0398 25.5951 18.9597 25.5262 18.8925 25.4394L14.885 20.3218C14.7564 20.1456 14.6865 19.9126 14.6898 19.6718C14.6931 19.431 14.7695 19.2013 14.9028 19.031C15.0362 18.8608 15.216 18.7632 15.4046 18.759C15.5931 18.7547 15.7756 18.8441 15.9135 19.0083L19.921 24.1259C20.0573 24.3001 20.1339 24.5363 20.1339 24.7826C20.1339 25.0289 20.0573 25.2651 19.921 25.4394C19.8539 25.5262 19.7738 25.5951 19.6854 25.6419C19.5971 25.6887 19.5024 25.7125 19.4068 25.712Z" fill="black"/>
</svg>
