<svg width="40" height="40" viewBox="0 0 40 40" fill="none" xmlns="http://www.w3.org/2000/svg">
<path d="M30.6665 34.5833H30.2832C25.9645 34.1135 21.8153 32.641 18.1665 30.2833C14.7768 28.1244 11.8988 25.2521 9.73317 21.8667C7.37009 18.2083 5.89737 14.0471 5.43317 9.71668C5.38009 9.20018 5.43249 8.67827 5.5872 8.18263C5.74191 7.68699 5.9957 7.22795 6.33317 6.83335C6.6614 6.43347 7.06654 6.10352 7.52459 5.86304C7.98264 5.62256 8.48429 5.47645 8.99984 5.43335H13.3332C14.2717 5.4343 15.1789 5.7708 15.8911 6.38208C16.6032 6.99337 17.0733 7.83914 17.2165 8.76668C17.3747 9.95814 17.6712 11.1271 18.0998 12.25C18.3606 12.9557 18.4144 13.7211 18.2549 14.4562C18.0955 15.1914 17.7295 15.8658 17.1998 16.4L16.1832 17.4167C17.7839 19.9437 19.931 22.0794 22.4665 23.6667L23.4832 22.6667C24.0174 22.1371 24.6918 21.771 25.4269 21.6116C26.1621 21.4521 26.9275 21.5059 27.6332 21.7667C28.7573 22.1914 29.9258 22.4877 31.1165 22.65C32.0599 22.7918 32.9191 23.2731 33.5328 24.0034C34.1465 24.7337 34.4726 25.663 34.4498 26.6167V30.6167C34.4498 31.657 34.0377 32.6549 33.3037 33.3921C32.5696 34.1293 31.5735 34.5456 30.5332 34.55L30.6665 34.5833ZM13.3332 7.91668H9.34984C9.15425 7.92961 8.96332 7.98207 8.78857 8.07087C8.61383 8.15967 8.45891 8.28298 8.33317 8.43335C8.21079 8.5742 8.11817 8.73836 8.06088 8.91595C8.0036 9.09353 7.98283 9.28086 7.99984 9.46668C8.40398 13.3946 9.72253 17.1733 11.8498 20.5C13.8109 23.5778 16.422 26.1889 19.4998 28.15C22.8286 30.2997 26.6115 31.6463 30.5498 32.0833C30.7547 32.0949 30.9597 32.0638 31.1519 31.9921C31.3441 31.9204 31.5193 31.8096 31.6665 31.6667C31.9319 31.3946 32.0813 31.0301 32.0832 30.65V26.6667C32.0907 26.3159 31.9693 25.9746 31.742 25.7074C31.5147 25.4401 31.1972 25.2656 30.8498 25.2167C29.4729 25.0315 28.1204 24.6962 26.8165 24.2167C26.5596 24.1206 26.2808 24.0994 26.0123 24.1555C25.7439 24.2115 25.4968 24.3425 25.2998 24.5333L23.6332 26.2C23.438 26.3903 23.1866 26.5126 22.9163 26.5486C22.6461 26.5847 22.3714 26.5325 22.1332 26.4C18.5768 24.3904 15.6331 21.4524 13.6165 17.9C13.4785 17.6633 13.4232 17.3874 13.4594 17.1157C13.4956 16.8441 13.6213 16.5923 13.8165 16.4L15.4832 14.7333C15.6743 14.5401 15.8058 14.2959 15.8619 14.0299C15.9181 13.7639 15.8965 13.4874 15.7998 13.2333C15.3185 11.93 14.9831 10.5773 14.7998 9.20002C14.7585 8.84213 14.5854 8.51245 14.3142 8.27521C14.0431 8.03797 13.6934 7.91016 13.3332 7.91668Z" fill="white"/>
</svg>
