<svg width="40" height="40" viewBox="0 0 40 40" fill="none" xmlns="http://www.w3.org/2000/svg">
<path d="M20.0002 35.4167C19.7551 35.4191 19.5157 35.3432 19.3168 35.2C18.8168 34.8833 7.0835 27 7.0835 17.4167C7.0835 13.991 8.44436 10.7055 10.8667 8.2832C13.289 5.86086 16.5745 4.5 20.0002 4.5C23.4259 4.5 26.7113 5.86086 29.1336 8.2832C31.556 10.7055 32.9168 13.991 32.9168 17.4167C32.9168 27 21.2502 34.8833 20.6835 35.2C20.4846 35.3432 20.2452 35.4191 20.0002 35.4167ZM20.0002 7.08333C17.2492 7.07447 14.6072 8.15766 12.6541 10.0951C10.7011 12.0325 9.59673 14.6657 9.5835 17.4167C9.5835 24.4333 17.5668 30.85 20.0002 32.6333C22.4335 30.85 30.4168 24.4333 30.4168 17.4167C30.4036 14.6657 29.2992 12.0325 27.3462 10.0951C25.3932 8.15766 22.7511 7.07447 20.0002 7.08333Z" fill="white"/>
<path d="M20.0003 21.2499C19.0938 21.2499 18.2077 20.9811 17.454 20.4775C16.7002 19.9739 16.1128 19.258 15.7659 18.4206C15.419 17.5831 15.3282 16.6615 15.5051 15.7724C15.6819 14.8833 16.1184 14.0667 16.7594 13.4257C17.4004 12.7847 18.2171 12.3482 19.1062 12.1713C19.9952 11.9945 20.9168 12.0852 21.7543 12.4321C22.5918 12.779 23.3076 13.3665 23.8112 14.1202C24.3149 14.8739 24.5837 15.7601 24.5837 16.6666C24.5837 17.8822 24.1008 19.048 23.2412 19.9075C22.3817 20.767 21.2159 21.2499 20.0003 21.2499ZM20.0003 14.5833C19.5883 14.5833 19.1855 14.7054 18.8429 14.9344C18.5003 15.1633 18.2333 15.4887 18.0756 15.8693C17.9179 16.25 17.8766 16.6689 17.957 17.073C18.0374 17.4772 18.2358 17.8484 18.5272 18.1397C18.8185 18.4311 19.1898 18.6295 19.5939 18.7099C19.998 18.7903 20.4169 18.749 20.7976 18.5913C21.1783 18.4337 21.5036 18.1666 21.7326 17.824C21.9615 17.4814 22.0837 17.0786 22.0837 16.6666C22.0837 16.1141 21.8642 15.5841 21.4735 15.1934C21.0828 14.8027 20.5529 14.5833 20.0003 14.5833Z" fill="white"/>
</svg>
