<svg width="24" height="30" viewBox="0 0 24 30" fill="none" xmlns="http://www.w3.org/2000/svg">
<path d="M10.4507 22.6761C9.00558 22.6761 7.59291 22.1288 6.39134 21.1036C5.18977 20.0783 4.25326 18.6211 3.70023 16.9161C3.14721 15.2112 3.00251 13.3351 3.28444 11.5251C3.56637 9.71514 4.26226 8.05257 5.28412 6.74766C6.30597 5.44274 7.60789 4.55409 9.02524 4.19406C10.4426 3.83404 11.9117 4.01881 13.2468 4.72503C14.5819 5.43124 15.7231 6.62718 16.526 8.16159C17.3288 9.69601 17.7573 11.5 17.7573 13.3454C17.7573 14.5707 17.5684 15.7841 17.2012 16.9161C16.834 18.0482 16.2958 19.0768 15.6173 19.9432C14.9388 20.8096 14.1333 21.4969 13.2468 21.9658C12.3603 22.4347 11.4102 22.6761 10.4507 22.6761ZM10.4507 5.88586C9.29921 5.88586 8.17358 6.3219 7.21615 7.13885C6.25872 7.95579 5.5125 9.11695 5.07184 10.4755C4.63118 11.834 4.51589 13.3289 4.74053 14.7711C4.96518 16.2133 5.51967 17.5381 6.3339 18.5778C7.14813 19.6176 8.18551 20.3257 9.31488 20.6126C10.4442 20.8994 11.6149 20.7522 12.6787 20.1895C13.7425 19.6268 14.6518 18.6738 15.2915 17.4512C15.9313 16.2285 16.2727 14.7911 16.2727 13.3206C16.2727 11.3488 15.6593 9.45775 14.5675 8.06346C13.4757 6.66917 11.9948 5.88586 10.4507 5.88586Z" fill="black"/>
<path d="M19.407 25.712C19.3114 25.7125 19.2167 25.6887 19.1284 25.6419C19.0401 25.5951 18.96 25.5262 18.8928 25.4394L14.8853 20.3218C14.7567 20.1456 14.6867 19.9126 14.6901 19.6718C14.6934 19.431 14.7698 19.2013 14.9031 19.031C15.0364 18.8608 15.2163 18.7632 15.4049 18.759C15.5934 18.7547 15.7759 18.8441 15.9138 19.0083L19.9213 24.1259C20.0576 24.3001 20.1342 24.5363 20.1342 24.7826C20.1342 25.0289 20.0576 25.2651 19.9213 25.4394C19.8541 25.5262 19.774 25.5951 19.6857 25.6419C19.5974 25.6887 19.5027 25.7125 19.407 25.712Z" fill="black"/>
</svg>
